<?xml version="1.0" encoding="UTF-8" standalone="no"?><!DOCTYPE svg PUBLIC "-//W3C//DTD SVG 1.1//EN" "http://www.w3.org/Graphics/SVG/1.1/DTD/svg11.dtd"><!-- Generated by graphviz version 2.40.1 (20161225.0304)
 --><!-- Title: %0 Pages: 1 --><svg xmlns="http://www.w3.org/2000/svg" xmlns:xlink="http://www.w3.org/1999/xlink" width="626pt" height="429pt" viewBox="0.00 0.00 625.50 428.93">
<g id="graph0" class="graph" transform="scale(1 1) rotate(0) translate(4 424.9251)">
<title>%0</title>
<polygon fill="#ffffff" stroke="transparent" points="-4,4 -4,-424.9251 621.5024,-424.9251 621.5024,4 -4,4"/>
<!-- SiPy -->
<g id="node1" class="node">
<title>SiPy</title>
<polygon fill="none" stroke="#000000" points="419.6114,-420.727 254.1817,-420.727 254.1817,-379.5232 419.6114,-379.5232 419.6114,-420.727"/>
<text text-anchor="middle" x="336.8966" y="-404.3251" font-family="Times,serif" font-size="14.00" fill="#000000">SiPy 0.6.0</text>
<text text-anchor="middle" x="336.8966" y="-387.5251" font-family="Times,serif" font-size="14.00" fill="#000000">Otoro-Chutoro Continuum</text>
</g>
<!-- fitter -->
<g id="node2" class="node">
<title>fitter</title>
<ellipse fill="none" stroke="#000000" cx="352.8966" cy="-219.0782" rx="31.2258" ry="29.3315"/>
<text text-anchor="middle" x="352.8966" y="-223.2782" font-family="Times,serif" font-size="14.00" fill="#000000">fitter</text>
<text text-anchor="middle" x="352.8966" y="-206.4782" font-family="Times,serif" font-size="14.00" fill="#000000">1.6.0</text>
</g>
<!-- SiPy&#45;&gt;fitter -->
<g id="edge1" class="edge">
<title>SiPy-&gt;fitter</title>
<path fill="none" stroke="#000000" d="M328.6603,-379.4527C324.8675,-368.8398 320.7939,-355.5926 318.8966,-343.3251 314.9002,-317.4851 312.6899,-309.8938 318.8966,-284.4939 321.5213,-273.7525 326.2465,-262.8112 331.3556,-253.028"/>
<polygon fill="#000000" stroke="#000000" points="334.5447,-254.4933 336.3156,-244.0475 328.4171,-251.109 334.5447,-254.4933"/>
</g>
<!-- pandas -->
<g id="node5" class="node">
<title>pandas</title>
<ellipse fill="none" stroke="#000000" cx="373.8966" cy="-124.2469" rx="38.6043" ry="29.3315"/>
<text text-anchor="middle" x="373.8966" y="-128.4469" font-family="Times,serif" font-size="14.00" fill="#000000">pandas</text>
<text text-anchor="middle" x="373.8966" y="-111.6469" font-family="Times,serif" font-size="14.00" fill="#000000">2.1.3</text>
</g>
<!-- SiPy&#45;&gt;pandas -->
<g id="edge2" class="edge">
<title>SiPy-&gt;pandas</title>
<path fill="none" stroke="#000000" d="M391.603,-379.4296C407.0772,-370.7406 422.0901,-358.9358 430.8966,-343.3251 464.5684,-283.6372 425.9227,-203.617 397.8554,-158.6566"/>
<polygon fill="#000000" stroke="#000000" points="400.7475,-156.6826 392.4075,-150.1484 394.8524,-160.4573 400.7475,-156.6826"/>
</g>
<!-- pingouin -->
<g id="node6" class="node">
<title>pingouin</title>
<ellipse fill="none" stroke="#000000" cx="374.8966" cy="-313.9095" rx="46.5287" ry="29.3315"/>
<text text-anchor="middle" x="374.8966" y="-318.1095" font-family="Times,serif" font-size="14.00" fill="#000000">pingouin</text>
<text text-anchor="middle" x="374.8966" y="-301.3095" font-family="Times,serif" font-size="14.00" fill="#000000">0.5.2</text>
</g>
<!-- SiPy&#45;&gt;pingouin -->
<g id="edge3" class="edge">
<title>SiPy-&gt;pingouin</title>
<path fill="none" stroke="#000000" d="M346.0953,-379.2547C349.7525,-370.9571 354.0769,-361.1458 358.2478,-351.6828"/>
<polygon fill="#000000" stroke="#000000" points="361.5066,-352.9671 362.3371,-342.4048 355.1012,-350.1438 361.5066,-352.9671"/>
</g>
<!-- scipy -->
<g id="node8" class="node">
<title>scipy</title>
<ellipse fill="none" stroke="#000000" cx="183.8966" cy="-124.2469" rx="32.4185" ry="29.3315"/>
<text text-anchor="middle" x="183.8966" y="-128.4469" font-family="Times,serif" font-size="14.00" fill="#000000">scipy</text>
<text text-anchor="middle" x="183.8966" y="-111.6469" font-family="Times,serif" font-size="14.00" fill="#000000">1.9.1</text>
</g>
<!-- SiPy&#45;&gt;scipy -->
<g id="edge4" class="edge">
<title>SiPy-&gt;scipy</title>
<path fill="none" stroke="#000000" d="M253.8352,-387.1133C176.0321,-370.0379 64.0112,-331.7779 10.8966,-248.4939 -3.163,-226.4483 -3.9673,-211.174 10.8966,-189.6626 26.3294,-167.3278 96.8522,-145.9582 142.9559,-134.0231"/>
<polygon fill="#000000" stroke="#000000" points="143.8492,-137.4074 152.6787,-131.5516 142.1246,-130.6232 143.8492,-137.4074"/>
</g>
<!-- matplotlib -->
<g id="node3" class="node">
<title>matplotlib</title>
<ellipse fill="none" stroke="#000000" cx="482.8966" cy="-124.2469" rx="52.027" ry="29.3315"/>
<text text-anchor="middle" x="482.8966" y="-128.4469" font-family="Times,serif" font-size="14.00" fill="#000000">matplotlib</text>
<text text-anchor="middle" x="482.8966" y="-111.6469" font-family="Times,serif" font-size="14.00" fill="#000000">3.8.2</text>
</g>
<!-- fitter&#45;&gt;matplotlib -->
<g id="edge5" class="edge">
<title>fitter-&gt;matplotlib</title>
<path fill="none" stroke="#000000" d="M377.6546,-201.018C395.9946,-187.6394 421.3814,-169.1205 442.6261,-153.6231"/>
<polygon fill="#000000" stroke="#000000" points="444.825,-156.3514 450.8413,-147.6304 440.6996,-150.6961 444.825,-156.3514"/>
</g>
<!-- numpy -->
<g id="node4" class="node">
<title>numpy</title>
<ellipse fill="none" stroke="#000000" cx="339.8966" cy="-29.4156" rx="38.6279" ry="29.3315"/>
<text text-anchor="middle" x="339.8966" y="-33.6156" font-family="Times,serif" font-size="14.00" fill="#000000">numpy</text>
<text text-anchor="middle" x="339.8966" y="-16.8156" font-family="Times,serif" font-size="14.00" fill="#000000">1.23.2</text>
</g>
<!-- fitter&#45;&gt;numpy -->
<g id="edge6" class="edge">
<title>fitter-&gt;numpy</title>
<path fill="none" stroke="#000000" d="M339.1323,-192.4522C333.8795,-180.8614 328.5249,-166.9194 325.8966,-153.6626 320.282,-125.3433 324.2801,-92.9137 329.4181,-68.2884"/>
<polygon fill="#000000" stroke="#000000" points="332.8968,-68.7702 331.6652,-58.2472 326.0658,-67.2414 332.8968,-68.7702"/>
</g>
<!-- fitter&#45;&gt;pandas -->
<g id="edge7" class="edge">
<title>fitter-&gt;pandas</title>
<path fill="none" stroke="#000000" d="M359.3114,-190.1104C361.1868,-181.6413 363.2683,-172.242 365.2576,-163.2584"/>
<polygon fill="#000000" stroke="#000000" points="368.7038,-163.8843 367.4487,-153.3641 361.8693,-162.3708 368.7038,-163.8843"/>
</g>
<!-- fitter&#45;&gt;scipy -->
<g id="edge8" class="edge">
<title>fitter-&gt;scipy</title>
<path fill="none" stroke="#000000" d="M328.8007,-200.3757C323.6587,-196.6656 318.1822,-192.9156 312.8966,-189.6626 283.3749,-171.4936 248.1807,-153.8978 222.0163,-141.5402"/>
<polygon fill="#000000" stroke="#000000" points="223.3533,-138.3017 212.8125,-137.2331 220.3863,-144.6418 223.3533,-138.3017"/>
</g>
<!-- matplotlib&#45;&gt;numpy -->
<g id="edge9" class="edge">
<title>matplotlib-&gt;numpy</title>
<path fill="none" stroke="#000000" d="M449.0076,-101.7732C427.5711,-87.5575 399.8293,-69.1604 377.6834,-54.4742"/>
<polygon fill="#000000" stroke="#000000" points="379.4563,-51.4503 369.1879,-48.8404 375.5876,-57.284 379.4563,-51.4503"/>
</g>
<!-- pandas&#45;&gt;numpy -->
<g id="edge10" class="edge">
<title>pandas-&gt;numpy</title>
<path fill="none" stroke="#000000" d="M363.6955,-95.7944C360.5016,-86.8863 356.9245,-76.909 353.5333,-67.4505"/>
<polygon fill="#000000" stroke="#000000" points="356.7602,-66.0801 350.0905,-57.8481 350.1709,-68.4426 356.7602,-66.0801"/>
</g>
<!-- pingouin&#45;&gt;matplotlib -->
<g id="edge11" class="edge">
<title>pingouin-&gt;matplotlib</title>
<path fill="none" stroke="#000000" d="M390.8324,-285.9241C409.6563,-252.8668 441.036,-197.7598 461.8464,-161.2138"/>
<polygon fill="#000000" stroke="#000000" points="464.9885,-162.7689 466.8954,-152.3471 458.9056,-159.3051 464.9885,-162.7689"/>
</g>
<!-- pingouin&#45;&gt;numpy -->
<g id="edge12" class="edge">
<title>pingouin-&gt;numpy</title>
<path fill="none" stroke="#000000" d="M420.5086,-307.721C481.9383,-298.3445 586.2033,-278.4012 608.8966,-248.4939 624.7018,-227.6642 614.3079,-215.2437 608.8966,-189.6626 599.3567,-144.5646 601.6361,-125.1298 566.8966,-94.8313 540.2166,-71.562 446.291,-49.9282 387.9474,-38.3059"/>
<polygon fill="#000000" stroke="#000000" points="388.3323,-34.8147 377.8453,-36.3225 386.9837,-41.6836 388.3323,-34.8147"/>
</g>
<!-- pingouin&#45;&gt;pandas -->
<g id="edge13" class="edge">
<title>pingouin-&gt;pandas</title>
<path fill="none" stroke="#000000" d="M384.6639,-284.9498C387.9787,-273.7061 391.2568,-260.6338 392.8966,-248.4939 396.3966,-222.5819 396.5798,-215.5491 392.8966,-189.6626 391.6257,-180.7304 389.4249,-171.3126 386.9614,-162.4917"/>
<polygon fill="#000000" stroke="#000000" points="390.2997,-161.4384 384.1038,-152.8441 383.588,-163.4264 390.2997,-161.4384"/>
</g>
<!-- seaborn -->
<g id="node7" class="node">
<title>seaborn</title>
<ellipse fill="none" stroke="#000000" cx="557.8966" cy="-219.0782" rx="42.1946" ry="29.3315"/>
<text text-anchor="middle" x="557.8966" y="-223.2782" font-family="Times,serif" font-size="14.00" fill="#000000">seaborn</text>
<text text-anchor="middle" x="557.8966" y="-206.4782" font-family="Times,serif" font-size="14.00" fill="#000000">0.12.0</text>
</g>
<!-- pingouin&#45;&gt;seaborn -->
<g id="edge14" class="edge">
<title>pingouin-&gt;seaborn</title>
<path fill="none" stroke="#000000" d="M411.0663,-295.3766C436.4994,-282.3211 471.3126,-264.4028 501.8966,-248.4939 506.1773,-246.2672 510.6381,-243.9383 515.0913,-241.608"/>
<polygon fill="#000000" stroke="#000000" points="516.9282,-244.5968 524.1608,-236.8547 513.6788,-238.3967 516.9282,-244.5968"/>
</g>
<!-- pingouin&#45;&gt;scipy -->
<g id="edge15" class="edge">
<title>pingouin-&gt;scipy</title>
<path fill="none" stroke="#000000" d="M330.3515,-305.2938C278.2544,-294.2065 196.8257,-273.3792 178.8966,-248.4939 161.1046,-223.799 164.4265,-188.6195 171.0025,-161.9941"/>
<polygon fill="#000000" stroke="#000000" points="174.406,-162.8156 173.6449,-152.2482 167.6499,-160.9838 174.406,-162.8156"/>
</g>
<!-- scikit&#45;learn -->
<g id="node9" class="node">
<title>scikit-learn</title>
<ellipse fill="none" stroke="#000000" cx="75.8966" cy="-219.0782" rx="55.6837" ry="29.3315"/>
<text text-anchor="middle" x="75.8966" y="-223.2782" font-family="Times,serif" font-size="14.00" fill="#000000">scikit-learn</text>
<text text-anchor="middle" x="75.8966" y="-206.4782" font-family="Times,serif" font-size="14.00" fill="#000000">1.1.2</text>
</g>
<!-- pingouin&#45;&gt;scikit&#45;learn -->
<g id="edge16" class="edge">
<title>pingouin-&gt;scikit-learn</title>
<path fill="none" stroke="#000000" d="M331.3624,-303.1317C284.9319,-291.2532 209.4786,-270.8445 145.8966,-248.4939 140.2401,-246.5054 134.3838,-244.295 128.5774,-242.0042"/>
<polygon fill="#000000" stroke="#000000" points="129.4799,-238.5943 118.8967,-238.0982 126.8606,-245.0858 129.4799,-238.5943"/>
</g>
<!-- statsmodels -->
<g id="node10" class="node">
<title>statsmodels</title>
<ellipse fill="none" stroke="#000000" cx="245.8966" cy="-219.0782" rx="57.5115" ry="29.3315"/>
<text text-anchor="middle" x="245.8966" y="-223.2782" font-family="Times,serif" font-size="14.00" fill="#000000">statsmodels</text>
<text text-anchor="middle" x="245.8966" y="-206.4782" font-family="Times,serif" font-size="14.00" fill="#000000">0.13.2</text>
</g>
<!-- pingouin&#45;&gt;statsmodels -->
<g id="edge17" class="edge">
<title>pingouin-&gt;statsmodels</title>
<path fill="none" stroke="#000000" d="M344.3254,-291.4358C327.2682,-278.8966 305.7854,-263.1041 287.2452,-249.4747"/>
<polygon fill="#000000" stroke="#000000" points="289.0905,-246.4872 278.9602,-243.3842 284.9443,-252.1272 289.0905,-246.4872"/>
</g>
<!-- seaborn&#45;&gt;matplotlib -->
<g id="edge18" class="edge">
<title>seaborn-&gt;matplotlib</title>
<path fill="none" stroke="#000000" d="M537.4025,-193.1651C529.0962,-182.6625 519.3777,-170.3742 510.4655,-159.1056"/>
<polygon fill="#000000" stroke="#000000" points="513.0989,-156.793 504.1504,-151.1206 507.6084,-161.1352 513.0989,-156.793"/>
</g>
<!-- seaborn&#45;&gt;numpy -->
<g id="edge19" class="edge">
<title>seaborn-&gt;numpy</title>
<path fill="none" stroke="#000000" d="M562.8963,-189.7969C565.8684,-162.2124 565.5626,-121.2785 543.8966,-94.8313 524.0235,-70.5726 441.8144,-49.8887 388.0161,-38.5961"/>
<polygon fill="#000000" stroke="#000000" points="388.4932,-35.121 377.9927,-36.5313 387.0808,-41.977 388.4932,-35.121"/>
</g>
<!-- seaborn&#45;&gt;pandas -->
<g id="edge20" class="edge">
<title>seaborn-&gt;pandas</title>
<path fill="none" stroke="#000000" d="M522.1775,-203.1032C494.4543,-190.4166 455.2536,-171.845 421.8966,-153.6626 418.8434,-151.9983 415.7118,-150.2285 412.5825,-148.4146"/>
<polygon fill="#000000" stroke="#000000" points="414.2248,-145.3196 403.8366,-143.237 410.6587,-151.3431 414.2248,-145.3196"/>
</g>
<!-- scipy&#45;&gt;numpy -->
<g id="edge21" class="edge">
<title>scipy-&gt;numpy</title>
<path fill="none" stroke="#000000" d="M210.7139,-107.9448C235.4753,-92.8926 272.5574,-70.3507 300.6491,-53.2739"/>
<polygon fill="#000000" stroke="#000000" points="302.6999,-56.1232 309.4269,-47.938 299.0637,-50.1417 302.6999,-56.1232"/>
</g>
<!-- scikit&#45;learn&#45;&gt;numpy -->
<g id="edge22" class="edge">
<title>scikit-learn-&gt;numpy</title>
<path fill="none" stroke="#000000" d="M84.6111,-189.8735C94.4358,-161.748 113.0541,-119.887 142.8966,-94.8313 185.4394,-59.1124 248.1725,-42.6913 291.358,-35.2786"/>
<polygon fill="#000000" stroke="#000000" points="292.0336,-38.7149 301.3471,-33.6642 290.9167,-31.8046 292.0336,-38.7149"/>
</g>
<!-- scikit&#45;learn&#45;&gt;scipy -->
<g id="edge23" class="edge">
<title>scikit-learn-&gt;scipy</title>
<path fill="none" stroke="#000000" d="M104.8386,-193.6652C119.6303,-180.6771 137.6451,-164.8589 152.7402,-151.6044"/>
<polygon fill="#000000" stroke="#000000" points="155.1302,-154.1635 160.3352,-144.9354 150.5115,-148.9035 155.1302,-154.1635"/>
</g>
<!-- statsmodels&#45;&gt;numpy -->
<g id="edge24" class="edge">
<title>statsmodels-&gt;numpy</title>
<path fill="none" stroke="#000000" d="M260.1732,-190.2725C276.5802,-157.1683 303.5491,-102.7535 321.513,-66.508"/>
<polygon fill="#000000" stroke="#000000" points="324.7944,-67.7688 326.0991,-57.2546 318.5224,-64.6602 324.7944,-67.7688"/>
</g>
<!-- statsmodels&#45;&gt;pandas -->
<g id="edge25" class="edge">
<title>statsmodels-&gt;pandas</title>
<path fill="none" stroke="#000000" d="M278.8598,-194.6568C296.8457,-181.3316 319.1466,-164.8095 337.6247,-151.1197"/>
<polygon fill="#000000" stroke="#000000" points="339.8648,-153.816 345.8163,-145.0507 335.6977,-148.1914 339.8648,-153.816"/>
</g>
<!-- statsmodels&#45;&gt;scipy -->
<g id="edge26" class="edge">
<title>statsmodels-&gt;scipy</title>
<path fill="none" stroke="#000000" d="M227.6299,-191.1386C220.8655,-180.7922 213.122,-168.9483 206.0492,-158.1302"/>
<polygon fill="#000000" stroke="#000000" points="208.9539,-156.177 200.5522,-149.7223 203.095,-160.0075 208.9539,-156.177"/>
</g>
</g>
</svg>