<?xml version="1.0" encoding="UTF-8" standalone="no"?><!DOCTYPE svg PUBLIC "-//W3C//DTD SVG 1.1//EN" "http://www.w3.org/Graphics/SVG/1.1/DTD/svg11.dtd"><!-- Generated by graphviz version 2.40.1 (20161225.0304)
 --><!-- Title: %0 Pages: 1 --><svg xmlns="http://www.w3.org/2000/svg" xmlns:xlink="http://www.w3.org/1999/xlink" width="912pt" height="606pt" viewBox="0.00 0.00 911.76 605.54">
<g id="graph0" class="graph" transform="scale(1 1) rotate(0) translate(4 601.5433)">
<title>%0</title>
<polygon fill="#ffffff" stroke="transparent" points="-4,4 -4,-601.5433 907.7613,-601.5433 907.7613,4 -4,4"/>
<!-- SiPy -->
<g id="node1" class="node">
<title>SiPy</title>
<polygon fill="#00ff00" stroke="#000000" points="165.5721,-262.6019 .1425,-262.6019 .1425,-221.3981 165.5721,-221.3981 165.5721,-262.6019"/>
<text text-anchor="middle" x="82.8573" y="-246.2" font-family="Times,serif" font-size="14.00" fill="#000000">SiPy 0.6.0</text>
<text text-anchor="middle" x="82.8573" y="-229.4" font-family="Times,serif" font-size="14.00" fill="#000000">Otoro-Chutoro Continuum</text>
</g>
<!-- fitter -->
<g id="node2" class="node">
<title>fitter</title>
<polygon fill="#ffff00" stroke="#000000" points="534.8432,-548 505.0892,-566 445.5813,-566 415.8273,-548 445.5813,-530 505.0892,-530 534.8432,-548"/>
<text text-anchor="middle" x="475.3352" y="-543.8" font-family="Times,serif" font-size="14.00" fill="#000000">fitter 1.6.0</text>
</g>
<!-- SiPy&#45;&gt;fitter -->
<g id="edge1" class="edge">
<title>SiPy-&gt;fitter</title>
<path fill="none" stroke="#000000" d="M88.2814,-262.6646C100.7504,-306.1158 135.5884,-407.4243 201.7146,-462 262.7052,-512.3371 353.3258,-533.3168 413.3416,-541.9913"/>
<polygon fill="#000000" stroke="#000000" points="413.0557,-545.4848 423.4387,-543.3766 414.0072,-538.5497 413.0557,-545.4848"/>
</g>
<!-- pandas -->
<g id="node5" class="node">
<title>pandas</title>
<polygon fill="#ffff00" stroke="#000000" points="735.0484,-418 700.7521,-436 632.1596,-436 597.8633,-418 632.1596,-400 700.7521,-400 735.0484,-418"/>
<text text-anchor="middle" x="666.4559" y="-413.8" font-family="Times,serif" font-size="14.00" fill="#000000">pandas 2.1.3</text>
</g>
<!-- SiPy&#45;&gt;pandas -->
<g id="edge2" class="edge">
<title>SiPy-&gt;pandas</title>
<path fill="none" stroke="#000000" d="M94.8589,-262.6488C113.5682,-292.8213 152.6813,-348.3639 201.7146,-376 329.7719,-448.1756 509.7724,-439.1373 603.7512,-427.752"/>
<polygon fill="#000000" stroke="#000000" points="604.4668,-431.1896 613.9503,-426.4659 603.5909,-424.2446 604.4668,-431.1896"/>
</g>
<!-- pingouin -->
<g id="node6" class="node">
<title>pingouin</title>
<polygon fill="#ffff00" stroke="#000000" points="356.6655,-349 317.9319,-367 240.4646,-367 201.731,-349 240.4646,-331 317.9319,-331 356.6655,-349"/>
<text text-anchor="middle" x="279.1982" y="-344.8" font-family="Times,serif" font-size="14.00" fill="#000000">pingouin 0.5.2</text>
</g>
<!-- SiPy&#45;&gt;pingouin -->
<g id="edge3" class="edge">
<title>SiPy-&gt;pingouin</title>
<path fill="none" stroke="#000000" d="M120.7138,-262.6307C154.0614,-280.8041 202.5689,-307.2393 237.1223,-326.0699"/>
<polygon fill="#000000" stroke="#000000" points="235.5749,-329.2125 246.0305,-330.9246 238.9246,-323.066 235.5749,-329.2125"/>
</g>
<!-- scipy -->
<g id="node8" class="node">
<title>scipy</title>
<polygon fill="#ffff00" stroke="#000000" points="727.6951,-282 697.0755,-300 635.8362,-300 605.2166,-282 635.8362,-264 697.0755,-264 727.6951,-282"/>
<text text-anchor="middle" x="666.4559" y="-277.8" font-family="Times,serif" font-size="14.00" fill="#000000">scipy 1.9.1</text>
</g>
<!-- SiPy&#45;&gt;scipy -->
<g id="edge4" class="edge">
<title>SiPy-&gt;scipy</title>
<path fill="none" stroke="#000000" d="M165.853,-247.6885C283.07,-255.7226 494.6877,-270.227 601.3121,-277.535"/>
<polygon fill="#000000" stroke="#000000" points="601.0802,-281.0273 611.2962,-278.2193 601.559,-274.0436 601.0802,-281.0273"/>
</g>
<!-- libsipy -->
<g id="node11" class="node">
<title>libsipy</title>
<polygon fill="#ffb6c1" stroke="#000000" points="306.3148,-187 252.0817,-187 252.0817,-151 306.3148,-151 306.3148,-187"/>
<text text-anchor="middle" x="279.1982" y="-164.8" font-family="Times,serif" font-size="14.00" fill="#000000">libsipy</text>
</g>
<!-- SiPy&#45;&gt;libsipy -->
<g id="edge27" class="edge">
<title>SiPy-&gt;libsipy</title>
<path fill="none" stroke="#ff0000" d="M138.3335,-221.3738C171.7507,-208.9492 213.365,-193.4769 242.6704,-182.5811"/>
<polygon fill="#ff0000" stroke="#ff0000" points="243.9539,-185.8381 252.1072,-179.0725 241.5144,-179.2769 243.9539,-185.8381"/>
</g>
<!-- SPM -->
<g id="node14" class="node">
<title>SPM</title>
<polygon fill="#add8e6" stroke="#000000" points="346.967,-133 211.4294,-133 211.4294,-97 346.967,-97 346.967,-133"/>
<text text-anchor="middle" x="279.1982" y="-110.8" font-family="Times,serif" font-size="14.00" fill="#000000">SiPy Plugin Manager</text>
</g>
<!-- SiPy&#45;&gt;SPM -->
<g id="edge30" class="edge">
<title>SiPy-&gt;SPM</title>
<path fill="none" stroke="#ff0000" d="M102.983,-221.0127C125.3087,-198.762 163.2772,-163.874 201.7146,-142 204.5622,-140.3795 207.5236,-138.8322 210.5553,-137.3581"/>
<polygon fill="#ff0000" stroke="#ff0000" points="212.1578,-140.4745 219.818,-133.1552 209.2653,-134.1 212.1578,-140.4745"/>
</g>
<!-- script_engine -->
<g id="node16" class="node">
<title>script_engine</title>
<polygon fill="#ffd700" stroke="#000000" points="335.2508,-79 223.1456,-79 223.1456,-43 335.2508,-43 335.2508,-79"/>
<text text-anchor="middle" x="279.1982" y="-56.8" font-family="Times,serif" font-size="14.00" fill="#000000">Scripting System</text>
</g>
<!-- SiPy&#45;&gt;script_engine -->
<g id="edge32" class="edge">
<title>SiPy-&gt;script_engine</title>
<path fill="none" stroke="#ff0000" d="M93.6625,-221.1961C111.7393,-188.3378 151.1604,-124.4276 201.7146,-88 205.5575,-85.231 209.7092,-82.7258 214.0247,-80.4625"/>
<polygon fill="#ff0000" stroke="#ff0000" points="215.5474,-83.6141 223.0665,-76.1499 212.5339,-77.2959 215.5474,-83.6141"/>
</g>
<!-- matplotlib -->
<g id="node3" class="node">
<title>matplotlib</title>
<ellipse fill="#fff5ee" stroke="#000000" cx="666.4559" cy="-510" rx="72.4345" ry="18"/>
<text text-anchor="middle" x="666.4559" y="-505.8" font-family="Times,serif" font-size="14.00" fill="#000000">matplotlib 3.8.2</text>
</g>
<!-- fitter&#45;&gt;matplotlib -->
<g id="edge5" class="edge">
<title>fitter-&gt;matplotlib</title>
<path fill="none" stroke="#000000" d="M520.1445,-539.0907C543.82,-534.3834 573.3505,-528.5119 599.6695,-523.279"/>
<polygon fill="#000000" stroke="#000000" points="600.4549,-526.6914 609.5803,-521.3084 599.0898,-519.8258 600.4549,-526.6914"/>
</g>
<!-- numpy -->
<g id="node4" class="node">
<title>numpy</title>
<ellipse fill="#fff5ee" stroke="#000000" cx="839.3422" cy="-395" rx="64.3384" ry="18"/>
<text text-anchor="middle" x="839.3422" y="-390.8" font-family="Times,serif" font-size="14.00" fill="#000000">numpy 1.23.2</text>
</g>
<!-- fitter&#45;&gt;numpy -->
<g id="edge6" class="edge">
<title>fitter-&gt;numpy</title>
<path fill="none" stroke="#000000" d="M519.5007,-557.3896C574.5281,-566.6826 669.7312,-574.664 738.9231,-537 784.7838,-512.0361 814.5083,-456.0028 828.9701,-422.2666"/>
<polygon fill="#000000" stroke="#000000" points="832.2235,-423.5579 832.8075,-412.9792 825.754,-420.8848 832.2235,-423.5579"/>
</g>
<!-- fitter&#45;&gt;pandas -->
<g id="edge7" class="edge">
<title>fitter-&gt;pandas</title>
<path fill="none" stroke="#000000" d="M518.7603,-538.2297C531.9723,-534.1214 546.1245,-528.5058 557.9886,-521 577.649,-508.562 577.3156,-499.2248 593.9886,-483 608.0624,-469.3045 624.2897,-454.6505 637.8161,-442.7296"/>
<polygon fill="#000000" stroke="#000000" points="640.2184,-445.2781 645.4314,-436.0545 635.6043,-440.0141 640.2184,-445.2781"/>
</g>
<!-- fitter&#45;&gt;scipy -->
<g id="edge8" class="edge">
<title>fitter-&gt;scipy</title>
<path fill="none" stroke="#000000" d="M523.5468,-540.7875C536.1773,-536.797 548.8117,-530.605 557.9886,-521 599.4041,-477.6522 569.0811,-445.5334 593.9886,-391 607.7627,-360.8425 629.3743,-329.6558 645.4161,-308.4084"/>
<polygon fill="#000000" stroke="#000000" points="648.3868,-310.2861 651.6944,-300.2208 642.8319,-306.0265 648.3868,-310.2861"/>
</g>
<!-- matplotlib&#45;&gt;numpy -->
<g id="edge9" class="edge">
<title>matplotlib-&gt;numpy</title>
<path fill="none" stroke="#000000" d="M706.1935,-494.7957C717.1126,-489.9971 728.7429,-484.2874 738.9231,-478 766.3229,-461.0775 794.3077,-437.3038 813.7509,-419.5348"/>
<polygon fill="#000000" stroke="#000000" points="816.3176,-421.9282 821.2771,-412.5659 811.5616,-416.7919 816.3176,-421.9282"/>
</g>
<!-- pandas&#45;&gt;numpy -->
<g id="edge10" class="edge">
<title>pandas-&gt;numpy</title>
<path fill="none" stroke="#000000" d="M721.6335,-410.6594C737.3461,-408.5691 754.6514,-406.2669 771.0449,-404.086"/>
<polygon fill="#000000" stroke="#000000" points="771.6609,-407.5349 781.112,-402.7467 770.7378,-400.5961 771.6609,-407.5349"/>
</g>
<!-- pingouin&#45;&gt;matplotlib -->
<g id="edge11" class="edge">
<title>pingouin-&gt;matplotlib</title>
<path fill="none" stroke="#000000" d="M281.8507,-367.0358C289.5193,-411.8179 316.2654,-527.8623 392.6819,-575 455.2119,-613.5718 487.1795,-594.5922 557.9886,-575 587.1849,-566.9217 616.4206,-548.667 637.1705,-533.5535"/>
<polygon fill="#000000" stroke="#000000" points="639.3275,-536.3109 645.2416,-527.5203 635.1365,-530.7042 639.3275,-536.3109"/>
</g>
<!-- pingouin&#45;&gt;numpy -->
<g id="edge12" class="edge">
<title>pingouin-&gt;numpy</title>
<path fill="none" stroke="#000000" d="M345.101,-354.4121C450.8281,-363.0945 657.5574,-380.0715 767.1454,-389.0711"/>
<polygon fill="#000000" stroke="#000000" points="766.8659,-392.5598 777.1189,-389.8901 767.4389,-385.5833 766.8659,-392.5598"/>
</g>
<!-- pingouin&#45;&gt;pandas -->
<g id="edge13" class="edge">
<title>pingouin-&gt;pandas</title>
<path fill="none" stroke="#000000" d="M322.0211,-365.1937C343.0389,-372.5647 368.8972,-380.787 392.6819,-386 460.34,-400.829 539.0088,-409.119 594.6091,-413.5238"/>
<polygon fill="#000000" stroke="#000000" points="594.4754,-417.0238 604.7146,-414.3018 595.0128,-410.0445 594.4754,-417.0238"/>
</g>
<!-- seaborn -->
<g id="node7" class="node">
<title>seaborn</title>
<ellipse fill="#fff5ee" stroke="#000000" cx="475.3352" cy="-494" rx="67.7449" ry="18"/>
<text text-anchor="middle" x="475.3352" y="-489.8" font-family="Times,serif" font-size="14.00" fill="#000000">seaborn 0.12.0</text>
</g>
<!-- pingouin&#45;&gt;seaborn -->
<g id="edge14" class="edge">
<title>pingouin-&gt;seaborn</title>
<path fill="none" stroke="#000000" d="M303.6425,-367.0712C339.1577,-393.3268 405.0315,-442.0259 444.0464,-470.8688"/>
<polygon fill="#000000" stroke="#000000" points="442.291,-473.9236 452.4128,-477.0539 446.4523,-468.2948 442.291,-473.9236"/>
</g>
<!-- pingouin&#45;&gt;scipy -->
<g id="edge15" class="edge">
<title>pingouin-&gt;scipy</title>
<path fill="none" stroke="#000000" d="M311.8729,-330.9006C333.9807,-319.5965 364.2306,-305.9176 392.6819,-299 461.5103,-282.2653 542.7799,-279.2381 598.7977,-279.6391"/>
<polygon fill="#000000" stroke="#000000" points="598.9168,-283.1405 608.9548,-279.7513 598.9942,-276.1409 598.9168,-283.1405"/>
</g>
<!-- scikit&#45;learn -->
<g id="node9" class="node">
<title>scikit-learn</title>
<ellipse fill="#fff5ee" stroke="#000000" cx="475.3352" cy="-196" rx="76.4037" ry="18"/>
<text text-anchor="middle" x="475.3352" y="-191.8" font-family="Times,serif" font-size="14.00" fill="#000000">scikit-learn 1.1.2</text>
</g>
<!-- pingouin&#45;&gt;scikit&#45;learn -->
<g id="edge16" class="edge">
<title>pingouin-&gt;scikit-learn</title>
<path fill="none" stroke="#000000" d="M302.4679,-330.8481C337.9937,-303.1356 405.7616,-250.2721 445.0678,-219.6106"/>
<polygon fill="#000000" stroke="#000000" points="447.2694,-222.3322 453.0015,-213.4218 442.9639,-216.8128 447.2694,-222.3322"/>
</g>
<!-- statsmodels -->
<g id="node10" class="node">
<title>statsmodels</title>
<ellipse fill="#fff5ee" stroke="#000000" cx="475.3352" cy="-326" rx="82.807" ry="18"/>
<text text-anchor="middle" x="475.3352" y="-321.8" font-family="Times,serif" font-size="14.00" fill="#000000">statsmodels 0.13.2</text>
</g>
<!-- pingouin&#45;&gt;statsmodels -->
<g id="edge17" class="edge">
<title>pingouin-&gt;statsmodels</title>
<path fill="none" stroke="#000000" d="M341.2572,-341.7227C357.4877,-339.8194 375.2463,-337.7369 392.3748,-335.7284"/>
<polygon fill="#000000" stroke="#000000" points="392.8465,-339.1971 402.3708,-334.5562 392.0312,-332.2448 392.8465,-339.1971"/>
</g>
<!-- seaborn&#45;&gt;matplotlib -->
<g id="edge18" class="edge">
<title>seaborn-&gt;matplotlib</title>
<path fill="none" stroke="#000000" d="M540.04,-499.4169C555.2305,-500.6886 571.5863,-502.0578 587.3287,-503.3757"/>
<polygon fill="#000000" stroke="#000000" points="587.3095,-506.8863 597.5666,-504.2328 587.8935,-499.9107 587.3095,-506.8863"/>
</g>
<!-- seaborn&#45;&gt;numpy -->
<g id="edge19" class="edge">
<title>seaborn-&gt;numpy</title>
<path fill="none" stroke="#000000" d="M538.3506,-487.2877C592.5412,-480.3421 672.271,-467.3016 738.9231,-445 760.8846,-437.6517 784.11,-426.3422 802.6868,-416.3368"/>
<polygon fill="#000000" stroke="#000000" points="804.5938,-419.2827 811.6759,-411.4027 801.2255,-413.1464 804.5938,-419.2827"/>
</g>
<!-- seaborn&#45;&gt;pandas -->
<g id="edge20" class="edge">
<title>seaborn-&gt;pandas</title>
<path fill="none" stroke="#000000" d="M514.0703,-479.1502C527.9429,-473.7932 543.6839,-467.67 557.9886,-462 577.8668,-454.1208 599.7288,-445.2852 618.5856,-437.6106"/>
<polygon fill="#000000" stroke="#000000" points="619.922,-440.8455 627.8617,-433.8304 617.2802,-434.3631 619.922,-440.8455"/>
</g>
<!-- scipy&#45;&gt;numpy -->
<g id="edge21" class="edge">
<title>scipy-&gt;numpy</title>
<path fill="none" stroke="#000000" d="M701.4772,-297.7087C713.611,-303.5895 727.1222,-310.6407 738.9231,-318 764.6947,-334.0719 791.9174,-355.2413 811.5078,-371.3153"/>
<polygon fill="#000000" stroke="#000000" points="809.4766,-374.1776 819.41,-377.8625 813.9426,-368.7873 809.4766,-374.1776"/>
</g>
<!-- scikit&#45;learn&#45;&gt;numpy -->
<g id="edge22" class="edge">
<title>scikit-learn-&gt;numpy</title>
<path fill="none" stroke="#000000" d="M550.7901,-198.6593C606.771,-203.8323 682.7972,-217.8753 738.9231,-255 781.2017,-282.9654 811.5109,-335.2571 827.1702,-367.4126"/>
<polygon fill="#000000" stroke="#000000" points="824.12,-369.1499 831.5567,-376.6961 830.4491,-366.1593 824.12,-369.1499"/>
</g>
<!-- scikit&#45;learn&#45;&gt;scipy -->
<g id="edge23" class="edge">
<title>scikit-learn-&gt;scipy</title>
<path fill="none" stroke="#000000" d="M516.8437,-211.2086C530.0972,-216.2937 544.756,-222.1595 557.9886,-228 580.4168,-237.8992 604.904,-249.9767 624.9273,-260.1975"/>
<polygon fill="#000000" stroke="#000000" points="623.5845,-263.4425 634.0789,-264.8979 626.7826,-257.2157 623.5845,-263.4425"/>
</g>
<!-- statsmodels&#45;&gt;numpy -->
<g id="edge24" class="edge">
<title>statsmodels-&gt;numpy</title>
<path fill="none" stroke="#000000" d="M555.2009,-330.8509C607.9176,-335.2337 678.2054,-343.3397 738.9231,-358 757.4931,-362.4837 777.3453,-369.3345 794.4542,-375.9275"/>
<polygon fill="#000000" stroke="#000000" points="793.5933,-379.3501 804.1802,-379.7598 796.1595,-372.8374 793.5933,-379.3501"/>
</g>
<!-- statsmodels&#45;&gt;pandas -->
<g id="edge25" class="edge">
<title>statsmodels-&gt;pandas</title>
<path fill="none" stroke="#000000" d="M509.5038,-342.4478C540.713,-357.471 587.0724,-379.7871 621.3211,-396.2734"/>
<polygon fill="#000000" stroke="#000000" points="620.1087,-399.5742 630.6372,-400.7579 623.1449,-393.2669 620.1087,-399.5742"/>
</g>
<!-- statsmodels&#45;&gt;scipy -->
<g id="edge26" class="edge">
<title>statsmodels-&gt;scipy</title>
<path fill="none" stroke="#000000" d="M532.1603,-312.9177C557.4981,-307.0844 587.2094,-300.2442 612.2349,-294.4828"/>
<polygon fill="#000000" stroke="#000000" points="613.3284,-297.8227 622.2882,-292.1683 611.7579,-291.0011 613.3284,-297.8227"/>
</g>
<!-- base -->
<g id="node12" class="node">
<title>base</title>
<ellipse fill="#ffb6c1" stroke="#000000" cx="475.3352" cy="-142" rx="28.3893" ry="18"/>
<text text-anchor="middle" x="475.3352" y="-137.8" font-family="Times,serif" font-size="14.00" fill="#000000">base</text>
</g>
<!-- libsipy&#45;&gt;base -->
<g id="edge28" class="edge">
<title>libsipy-&gt;base</title>
<path fill="none" stroke="#000000" d="M306.4702,-165.2458C340.5301,-160.5571 398.9853,-152.5102 437.397,-147.2225"/>
<polygon fill="#000000" stroke="#000000" points="438.2333,-150.6405 447.6626,-145.8094 437.2787,-143.7059 438.2333,-150.6405"/>
</g>
<!-- lib_N -->
<g id="node13" class="node">
<title>lib_N</title>
<polygon fill="#ffb6c1" stroke="#000000" points="510.8688,-76.5442 510.8688,-91.4558 490.0537,-102 460.6168,-102 439.8017,-91.4558 439.8017,-76.5442 460.6168,-66 490.0537,-66 510.8688,-76.5442"/>
<polygon fill="none" stroke="#000000" points="514.8442,-74.0796 514.8442,-93.9204 490.998,-106 459.6725,-106 435.8263,-93.9204 435.8263,-74.0796 459.6725,-62 490.998,-62 514.8442,-74.0796"/>
<text text-anchor="middle" x="475.3352" y="-79.8" font-family="Times,serif" font-size="14.00" fill="#000000">lib_N</text>
</g>
<!-- libsipy&#45;&gt;lib_N -->
<g id="edge29" class="edge">
<title>libsipy-&gt;lib_N</title>
<path fill="none" stroke="#000000" stroke-dasharray="5,2" d="M306.5922,-161.7113C321.8219,-157.1104 340.8397,-150.4378 356.6819,-142 374.3342,-132.598 375.1414,-124.6089 392.6819,-115 403.924,-108.8414 416.643,-103.398 428.6738,-98.8598"/>
<polygon fill="#000000" stroke="#000000" points="429.9328,-102.1263 438.1333,-95.4179 427.5393,-95.5481 429.9328,-102.1263"/>
</g>
<!-- plugin_M -->
<g id="node15" class="node">
<title>plugin_M</title>
<polygon fill="#add8e6" stroke="#000000" points="528.6797,-14.5442 528.6797,-29.4558 497.4312,-40 453.2392,-40 421.9908,-29.4558 421.9908,-14.5442 453.2392,-4 497.4312,-4 528.6797,-14.5442"/>
<polygon fill="none" stroke="#000000" points="532.6922,-11.6752 532.6922,-32.3248 498.0919,-44 452.5786,-44 417.9783,-32.3248 417.9783,-11.6752 452.5786,0 498.0919,0 532.6922,-11.6752"/>
<text text-anchor="middle" x="475.3352" y="-17.8" font-family="Times,serif" font-size="14.00" fill="#000000">plugin_M</text>
</g>
<!-- SPM&#45;&gt;plugin_M -->
<g id="edge31" class="edge">
<title>SPM-&gt;plugin_M</title>
<path fill="none" stroke="#000000" stroke-dasharray="5,2" d="M339.6305,-96.8953C345.5606,-94.253 351.3492,-91.2938 356.6819,-88 375.6676,-76.2732 373.8354,-64.9493 392.6819,-53 400.7512,-47.8838 409.7922,-43.4209 418.853,-39.5967"/>
<polygon fill="#000000" stroke="#000000" points="420.272,-42.7989 428.2627,-35.842 417.6776,-36.2974 420.272,-42.7989"/>
</g>
</g>
</svg>