<?xml version="1.0" encoding="UTF-8" standalone="no"?><!DOCTYPE svg PUBLIC "-//W3C//DTD SVG 1.1//EN" "http://www.w3.org/Graphics/SVG/1.1/DTD/svg11.dtd"><!-- Generated by graphviz version 2.40.1 (20161225.0304)
 --><!-- Title: %0 Pages: 1 --><svg xmlns="http://www.w3.org/2000/svg" xmlns:xlink="http://www.w3.org/1999/xlink" width="912pt" height="606pt" viewBox="0.00 0.00 911.76 605.54">
<g id="graph0" class="graph" transform="scale(1 1) rotate(0) translate(4 601.5433)">
<title>%0</title>
<polygon fill="#ffffff" stroke="transparent" points="-4,4 -4,-601.5433 907.7613,-601.5433 907.7613,4 -4,4"/>
<!-- SiPy -->
<g id="node1" class="node">
<title>SiPy</title>
<polygon fill="#00ff00" stroke="#000000" points="165.5721,-239.6019 .1425,-239.6019 .1425,-198.3981 165.5721,-198.3981 165.5721,-239.6019"/>
<text text-anchor="middle" x="82.8573" y="-223.2" font-family="Times,serif" font-size="14.00" fill="#000000">SiPy 0.6.0</text>
<text text-anchor="middle" x="82.8573" y="-206.4" font-family="Times,serif" font-size="14.00" fill="#000000">Otoro-Chutoro Continuum</text>
</g>
<!-- fitter -->
<g id="node2" class="node">
<title>fitter</title>
<polygon fill="#ffff00" stroke="#000000" points="534.8432,-548 505.0892,-566 445.5813,-566 415.8273,-548 445.5813,-530 505.0892,-530 534.8432,-548"/>
<text text-anchor="middle" x="475.3352" y="-543.8" font-family="Times,serif" font-size="14.00" fill="#000000">fitter 1.7.0</text>
</g>
<!-- SiPy&#45;&gt;fitter -->
<g id="edge1" class="edge">
<title>SiPy-&gt;fitter</title>
<path fill="none" stroke="#000000" d="M87.1272,-239.6549C97.8497,-286.3225 130.3183,-400.6071 201.7146,-462 261.4969,-513.4061 352.0032,-534.1216 412.3567,-542.4456"/>
<polygon fill="#000000" stroke="#000000" points="412.1483,-545.948 422.5167,-543.7694 413.0528,-539.0067 412.1483,-545.948"/>
</g>
<!-- pandas -->
<g id="node5" class="node">
<title>pandas</title>
<polygon fill="#ffff00" stroke="#000000" points="735.0484,-418 700.7521,-436 632.1596,-436 597.8633,-418 632.1596,-400 700.7521,-400 735.0484,-418"/>
<text text-anchor="middle" x="666.4559" y="-413.8" font-family="Times,serif" font-size="14.00" fill="#000000">pandas 2.2.2</text>
</g>
<!-- SiPy&#45;&gt;pandas -->
<g id="edge2" class="edge">
<title>SiPy-&gt;pandas</title>
<path fill="none" stroke="#000000" d="M92.2433,-239.7618C108.9512,-274.1547 147.2812,-342.4743 201.7146,-376 327.8352,-453.6781 510.8654,-441.8232 605.1807,-428.7028"/>
<polygon fill="#000000" stroke="#000000" points="605.7321,-432.1596 615.1301,-427.2678 604.7328,-425.2313 605.7321,-432.1596"/>
</g>
<!-- pingouin -->
<g id="node6" class="node">
<title>pingouin</title>
<polygon fill="#ffff00" stroke="#000000" points="356.6655,-349 317.9319,-367 240.4646,-367 201.731,-349 240.4646,-331 317.9319,-331 356.6655,-349"/>
<text text-anchor="middle" x="279.1982" y="-344.8" font-family="Times,serif" font-size="14.00" fill="#000000">pingouin 0.5.4</text>
</g>
<!-- SiPy&#45;&gt;pingouin -->
<g id="edge3" class="edge">
<title>SiPy-&gt;pingouin</title>
<path fill="none" stroke="#000000" d="M114.4029,-239.8867C149.6275,-263.2095 206.5202,-300.8789 243.3884,-325.2898"/>
<polygon fill="#000000" stroke="#000000" points="241.5776,-328.2885 251.8479,-330.8909 245.4421,-322.4519 241.5776,-328.2885"/>
</g>
<!-- scipy -->
<g id="node8" class="node">
<title>scipy</title>
<polygon fill="#ffff00" stroke="#000000" points="733.3458,-282 699.9008,-300 633.0109,-300 599.5659,-282 633.0109,-264 699.9008,-264 733.3458,-282"/>
<text text-anchor="middle" x="666.4559" y="-277.8" font-family="Times,serif" font-size="14.00" fill="#000000">scipy 1.13.0</text>
</g>
<!-- SiPy&#45;&gt;scipy -->
<g id="edge4" class="edge">
<title>SiPy-&gt;scipy</title>
<path fill="none" stroke="#000000" d="M165.853,-227.9595C282.7652,-240.5802 493.5876,-263.3387 600.4781,-274.8776"/>
<polygon fill="#000000" stroke="#000000" points="600.1733,-278.365 610.4912,-275.9586 600.9247,-271.4054 600.1733,-278.365"/>
</g>
<!-- libsipy -->
<g id="node11" class="node">
<title>libsipy</title>
<polygon fill="#ffb6c1" stroke="#000000" points="306.3148,-214 252.0817,-214 252.0817,-178 306.3148,-178 306.3148,-214"/>
<text text-anchor="middle" x="279.1982" y="-191.8" font-family="Times,serif" font-size="14.00" fill="#000000">libsipy</text>
</g>
<!-- SiPy&#45;&gt;libsipy -->
<g id="edge27" class="edge">
<title>SiPy-&gt;libsipy</title>
<path fill="none" stroke="#ff0000" d="M165.8389,-209.2793C192.2819,-206.1817 220.2317,-202.9075 241.7619,-200.3854"/>
<polygon fill="#ff0000" stroke="#ff0000" points="242.256,-203.8516 251.7808,-199.2118 241.4415,-196.8991 242.256,-203.8516"/>
</g>
<!-- SPM -->
<g id="node14" class="node">
<title>SPM</title>
<polygon fill="#add8e6" stroke="#000000" points="346.967,-160 211.4294,-160 211.4294,-124 346.967,-124 346.967,-160"/>
<text text-anchor="middle" x="279.1982" y="-137.8" font-family="Times,serif" font-size="14.00" fill="#000000">SiPy Plugin Manager</text>
</g>
<!-- SiPy&#45;&gt;SPM -->
<g id="edge30" class="edge">
<title>SiPy-&gt;SPM</title>
<path fill="none" stroke="#ff0000" d="M130.0073,-198.3617C151.7158,-189.0674 177.8912,-178.1513 201.7146,-169 206.4956,-167.1635 211.462,-165.3102 216.4674,-163.4812"/>
<polygon fill="#ff0000" stroke="#ff0000" points="217.8843,-166.6909 226.1027,-160.0045 215.5084,-160.1064 217.8843,-166.6909"/>
</g>
<!-- script_engine -->
<g id="node16" class="node">
<title>script_engine</title>
<polygon fill="#ffd700" stroke="#000000" points="335.2508,-106 223.1456,-106 223.1456,-70 335.2508,-70 335.2508,-106"/>
<text text-anchor="middle" x="279.1982" y="-83.8" font-family="Times,serif" font-size="14.00" fill="#000000">Scripting System</text>
</g>
<!-- SiPy&#45;&gt;script_engine -->
<g id="edge32" class="edge">
<title>SiPy-&gt;script_engine</title>
<path fill="none" stroke="#ff0000" d="M101.6158,-198.3816C123.6172,-175.2721 162.1391,-138.0323 201.7146,-115 205.5583,-112.7631 209.6168,-110.6702 213.7805,-108.7195"/>
<polygon fill="#ff0000" stroke="#ff0000" points="215.2635,-111.891 223.0214,-104.6754 212.457,-105.4782 215.2635,-111.891"/>
</g>
<!-- cmd -->
<g id="node17" class="node">
<title>cmd</title>
<polygon fill="#dda0dd" stroke="#000000" points="348.5763,-52 209.8202,-52 209.8202,-16 348.5763,-16 348.5763,-52"/>
<text text-anchor="middle" x="279.1982" y="-29.8" font-family="Times,serif" font-size="14.00" fill="#000000">Command Line Tools</text>
</g>
<!-- SiPy&#45;&gt;cmd -->
<g id="edge33" class="edge">
<title>SiPy-&gt;cmd</title>
<path fill="none" stroke="#ff0000" d="M93.2339,-198.1934C110.9817,-164.6371 150.2861,-98.5427 201.7146,-61 203.5843,-59.6351 205.5288,-58.3347 207.5312,-57.0962"/>
<polygon fill="#ff0000" stroke="#ff0000" points="209.579,-59.9628 216.6279,-52.053 206.1849,-53.8407 209.579,-59.9628"/>
</g>
<!-- matplotlib -->
<g id="node3" class="node">
<title>matplotlib</title>
<ellipse fill="#fff5ee" stroke="#000000" cx="666.4559" cy="-510" rx="72.4345" ry="18"/>
<text text-anchor="middle" x="666.4559" y="-505.8" font-family="Times,serif" font-size="14.00" fill="#000000">matplotlib 3.8.4</text>
</g>
<!-- fitter&#45;&gt;matplotlib -->
<g id="edge5" class="edge">
<title>fitter-&gt;matplotlib</title>
<path fill="none" stroke="#000000" d="M520.1445,-539.0907C543.82,-534.3834 573.3505,-528.5119 599.6695,-523.279"/>
<polygon fill="#000000" stroke="#000000" points="600.4549,-526.6914 609.5803,-521.3084 599.0898,-519.8258 600.4549,-526.6914"/>
</g>
<!-- numpy -->
<g id="node4" class="node">
<title>numpy</title>
<ellipse fill="#fff5ee" stroke="#000000" cx="839.3422" cy="-395" rx="64.3384" ry="18"/>
<text text-anchor="middle" x="839.3422" y="-390.8" font-family="Times,serif" font-size="14.00" fill="#000000">numpy 1.26.4</text>
</g>
<!-- fitter&#45;&gt;numpy -->
<g id="edge6" class="edge">
<title>fitter-&gt;numpy</title>
<path fill="none" stroke="#000000" d="M519.5007,-557.3896C574.5281,-566.6826 669.7312,-574.664 738.9231,-537 784.7838,-512.0361 814.5083,-456.0028 828.9701,-422.2666"/>
<polygon fill="#000000" stroke="#000000" points="832.2235,-423.5579 832.8075,-412.9792 825.754,-420.8848 832.2235,-423.5579"/>
</g>
<!-- fitter&#45;&gt;pandas -->
<g id="edge7" class="edge">
<title>fitter-&gt;pandas</title>
<path fill="none" stroke="#000000" d="M518.7603,-538.2297C531.9723,-534.1214 546.1245,-528.5058 557.9886,-521 577.649,-508.562 577.3156,-499.2248 593.9886,-483 608.0624,-469.3045 624.2897,-454.6505 637.8161,-442.7296"/>
<polygon fill="#000000" stroke="#000000" points="640.2184,-445.2781 645.4314,-436.0545 635.6043,-440.0141 640.2184,-445.2781"/>
</g>
<!-- fitter&#45;&gt;scipy -->
<g id="edge8" class="edge">
<title>fitter-&gt;scipy</title>
<path fill="none" stroke="#000000" d="M523.5468,-540.7875C536.1773,-536.797 548.8117,-530.605 557.9886,-521 599.4041,-477.6522 569.0811,-445.5334 593.9886,-391 607.7627,-360.8425 629.3743,-329.6558 645.4161,-308.4084"/>
<polygon fill="#000000" stroke="#000000" points="648.3868,-310.2861 651.6944,-300.2208 642.8319,-306.0265 648.3868,-310.2861"/>
</g>
<!-- matplotlib&#45;&gt;numpy -->
<g id="edge9" class="edge">
<title>matplotlib-&gt;numpy</title>
<path fill="none" stroke="#000000" d="M706.1935,-494.7957C717.1126,-489.9971 728.7429,-484.2874 738.9231,-478 766.3229,-461.0775 794.3077,-437.3038 813.7509,-419.5348"/>
<polygon fill="#000000" stroke="#000000" points="816.3176,-421.9282 821.2771,-412.5659 811.5616,-416.7919 816.3176,-421.9282"/>
</g>
<!-- pandas&#45;&gt;numpy -->
<g id="edge10" class="edge">
<title>pandas-&gt;numpy</title>
<path fill="none" stroke="#000000" d="M721.6335,-410.6594C737.3461,-408.5691 754.6514,-406.2669 771.0449,-404.086"/>
<polygon fill="#000000" stroke="#000000" points="771.6609,-407.5349 781.112,-402.7467 770.7378,-400.5961 771.6609,-407.5349"/>
</g>
<!-- pingouin&#45;&gt;matplotlib -->
<g id="edge11" class="edge">
<title>pingouin-&gt;matplotlib</title>
<path fill="none" stroke="#000000" d="M281.8507,-367.0358C289.5193,-411.8179 316.2654,-527.8623 392.6819,-575 455.2119,-613.5718 487.1795,-594.5922 557.9886,-575 587.1849,-566.9217 616.4206,-548.667 637.1705,-533.5535"/>
<polygon fill="#000000" stroke="#000000" points="639.3275,-536.3109 645.2416,-527.5203 635.1365,-530.7042 639.3275,-536.3109"/>
</g>
<!-- pingouin&#45;&gt;numpy -->
<g id="edge12" class="edge">
<title>pingouin-&gt;numpy</title>
<path fill="none" stroke="#000000" d="M345.101,-354.4121C450.8281,-363.0945 657.5574,-380.0715 767.1454,-389.0711"/>
<polygon fill="#000000" stroke="#000000" points="766.8659,-392.5598 777.1189,-389.8901 767.4389,-385.5833 766.8659,-392.5598"/>
</g>
<!-- pingouin&#45;&gt;pandas -->
<g id="edge13" class="edge">
<title>pingouin-&gt;pandas</title>
<path fill="none" stroke="#000000" d="M322.0211,-365.1937C343.0389,-372.5647 368.8972,-380.787 392.6819,-386 460.34,-400.829 539.0088,-409.119 594.6091,-413.5238"/>
<polygon fill="#000000" stroke="#000000" points="594.4754,-417.0238 604.7146,-414.3018 595.0128,-410.0445 594.4754,-417.0238"/>
</g>
<!-- seaborn -->
<g id="node7" class="node">
<title>seaborn</title>
<ellipse fill="#fff5ee" stroke="#000000" cx="475.3352" cy="-494" rx="67.7449" ry="18"/>
<text text-anchor="middle" x="475.3352" y="-489.8" font-family="Times,serif" font-size="14.00" fill="#000000">seaborn 0.13.2</text>
</g>
<!-- pingouin&#45;&gt;seaborn -->
<g id="edge14" class="edge">
<title>pingouin-&gt;seaborn</title>
<path fill="none" stroke="#000000" d="M303.6425,-367.0712C339.1577,-393.3268 405.0315,-442.0259 444.0464,-470.8688"/>
<polygon fill="#000000" stroke="#000000" points="442.291,-473.9236 452.4128,-477.0539 446.4523,-468.2948 442.291,-473.9236"/>
</g>
<!-- pingouin&#45;&gt;scipy -->
<g id="edge15" class="edge">
<title>pingouin-&gt;scipy</title>
<path fill="none" stroke="#000000" d="M311.8729,-330.9006C333.9807,-319.5965 364.2306,-305.9176 392.6819,-299 459.4411,-282.7684 537.9047,-279.4325 593.678,-279.6125"/>
<polygon fill="#000000" stroke="#000000" points="593.7954,-283.1133 603.8201,-279.6847 593.8453,-276.1135 593.7954,-283.1133"/>
</g>
<!-- scikit&#45;learn -->
<g id="node9" class="node">
<title>scikit-learn</title>
<ellipse fill="#fff5ee" stroke="#000000" cx="475.3352" cy="-196" rx="76.4037" ry="18"/>
<text text-anchor="middle" x="475.3352" y="-191.8" font-family="Times,serif" font-size="14.00" fill="#000000">scikit-learn 1.4.2</text>
</g>
<!-- pingouin&#45;&gt;scikit&#45;learn -->
<g id="edge16" class="edge">
<title>pingouin-&gt;scikit-learn</title>
<path fill="none" stroke="#000000" d="M302.4679,-330.8481C337.9937,-303.1356 405.7616,-250.2721 445.0678,-219.6106"/>
<polygon fill="#000000" stroke="#000000" points="447.2694,-222.3322 453.0015,-213.4218 442.9639,-216.8128 447.2694,-222.3322"/>
</g>
<!-- statsmodels -->
<g id="node10" class="node">
<title>statsmodels</title>
<ellipse fill="#fff5ee" stroke="#000000" cx="475.3352" cy="-326" rx="82.807" ry="18"/>
<text text-anchor="middle" x="475.3352" y="-321.8" font-family="Times,serif" font-size="14.00" fill="#000000">statsmodels 0.14.2</text>
</g>
<!-- pingouin&#45;&gt;statsmodels -->
<g id="edge17" class="edge">
<title>pingouin-&gt;statsmodels</title>
<path fill="none" stroke="#000000" d="M341.2572,-341.7227C357.4877,-339.8194 375.2463,-337.7369 392.3748,-335.7284"/>
<polygon fill="#000000" stroke="#000000" points="392.8465,-339.1971 402.3708,-334.5562 392.0312,-332.2448 392.8465,-339.1971"/>
</g>
<!-- seaborn&#45;&gt;matplotlib -->
<g id="edge18" class="edge">
<title>seaborn-&gt;matplotlib</title>
<path fill="none" stroke="#000000" d="M540.04,-499.4169C555.2305,-500.6886 571.5863,-502.0578 587.3287,-503.3757"/>
<polygon fill="#000000" stroke="#000000" points="587.3095,-506.8863 597.5666,-504.2328 587.8935,-499.9107 587.3095,-506.8863"/>
</g>
<!-- seaborn&#45;&gt;numpy -->
<g id="edge19" class="edge">
<title>seaborn-&gt;numpy</title>
<path fill="none" stroke="#000000" d="M538.3506,-487.2877C592.5412,-480.3421 672.271,-467.3016 738.9231,-445 760.8846,-437.6517 784.11,-426.3422 802.6868,-416.3368"/>
<polygon fill="#000000" stroke="#000000" points="804.5938,-419.2827 811.6759,-411.4027 801.2255,-413.1464 804.5938,-419.2827"/>
</g>
<!-- seaborn&#45;&gt;pandas -->
<g id="edge20" class="edge">
<title>seaborn-&gt;pandas</title>
<path fill="none" stroke="#000000" d="M514.0703,-479.1502C527.9429,-473.7932 543.6839,-467.67 557.9886,-462 577.8668,-454.1208 599.7288,-445.2852 618.5856,-437.6106"/>
<polygon fill="#000000" stroke="#000000" points="619.922,-440.8455 627.8617,-433.8304 617.2802,-434.3631 619.922,-440.8455"/>
</g>
<!-- scipy&#45;&gt;numpy -->
<g id="edge21" class="edge">
<title>scipy-&gt;numpy</title>
<path fill="none" stroke="#000000" d="M702.9545,-298.4272C714.7001,-304.1598 727.599,-310.938 738.9231,-318 764.6947,-334.0719 791.9174,-355.2413 811.5078,-371.3153"/>
<polygon fill="#000000" stroke="#000000" points="809.4766,-374.1776 819.41,-377.8625 813.9426,-368.7873 809.4766,-374.1776"/>
</g>
<!-- scikit&#45;learn&#45;&gt;numpy -->
<g id="edge22" class="edge">
<title>scikit-learn-&gt;numpy</title>
<path fill="none" stroke="#000000" d="M550.7901,-198.6593C606.771,-203.8323 682.7972,-217.8753 738.9231,-255 781.2017,-282.9654 811.5109,-335.2571 827.1702,-367.4126"/>
<polygon fill="#000000" stroke="#000000" points="824.12,-369.1499 831.5567,-376.6961 830.4491,-366.1593 824.12,-369.1499"/>
</g>
<!-- scikit&#45;learn&#45;&gt;scipy -->
<g id="edge23" class="edge">
<title>scikit-learn-&gt;scipy</title>
<path fill="none" stroke="#000000" d="M516.8437,-211.2086C530.0972,-216.2937 544.756,-222.1595 557.9886,-228 579.9184,-237.6792 603.8167,-249.441 623.5859,-259.5134"/>
<polygon fill="#000000" stroke="#000000" points="622.1481,-262.7094 632.6436,-264.1569 625.3415,-256.4803 622.1481,-262.7094"/>
</g>
<!-- statsmodels&#45;&gt;numpy -->
<g id="edge24" class="edge">
<title>statsmodels-&gt;numpy</title>
<path fill="none" stroke="#000000" d="M555.2009,-330.8509C607.9176,-335.2337 678.2054,-343.3397 738.9231,-358 757.4931,-362.4837 777.3453,-369.3345 794.4542,-375.9275"/>
<polygon fill="#000000" stroke="#000000" points="793.5933,-379.3501 804.1802,-379.7598 796.1595,-372.8374 793.5933,-379.3501"/>
</g>
<!-- statsmodels&#45;&gt;pandas -->
<g id="edge25" class="edge">
<title>statsmodels-&gt;pandas</title>
<path fill="none" stroke="#000000" d="M509.5038,-342.4478C540.713,-357.471 587.0724,-379.7871 621.3211,-396.2734"/>
<polygon fill="#000000" stroke="#000000" points="620.1087,-399.5742 630.6372,-400.7579 623.1449,-393.2669 620.1087,-399.5742"/>
</g>
<!-- statsmodels&#45;&gt;scipy -->
<g id="edge26" class="edge">
<title>statsmodels-&gt;scipy</title>
<path fill="none" stroke="#000000" d="M532.1603,-312.9177C556.6277,-307.2848 585.1733,-300.713 609.6397,-295.0803"/>
<polygon fill="#000000" stroke="#000000" points="610.539,-298.4649 619.4989,-292.8105 608.9685,-291.6433 610.539,-298.4649"/>
</g>
<!-- base -->
<g id="node12" class="node">
<title>base</title>
<ellipse fill="#ffb6c1" stroke="#000000" cx="475.3352" cy="-142" rx="28.3893" ry="18"/>
<text text-anchor="middle" x="475.3352" y="-137.8" font-family="Times,serif" font-size="14.00" fill="#000000">base</text>
</g>
<!-- libsipy&#45;&gt;base -->
<g id="edge28" class="edge">
<title>libsipy-&gt;base</title>
<path fill="none" stroke="#000000" d="M306.4702,-188.4915C341.1587,-178.9412 401.1516,-162.4241 439.5032,-151.8652"/>
<polygon fill="#000000" stroke="#000000" points="440.5206,-155.2154 449.2328,-149.1865 438.6624,-148.4665 440.5206,-155.2154"/>
</g>
<!-- lib_N -->
<g id="node13" class="node">
<title>lib_N</title>
<polygon fill="#ffb6c1" stroke="#000000" points="510.8688,-76.5442 510.8688,-91.4558 490.0537,-102 460.6168,-102 439.8017,-91.4558 439.8017,-76.5442 460.6168,-66 490.0537,-66 510.8688,-76.5442"/>
<polygon fill="none" stroke="#000000" points="514.8442,-74.0796 514.8442,-93.9204 490.998,-106 459.6725,-106 435.8263,-93.9204 435.8263,-74.0796 459.6725,-62 490.998,-62 514.8442,-74.0796"/>
<text text-anchor="middle" x="475.3352" y="-79.8" font-family="Times,serif" font-size="14.00" fill="#000000">lib_N</text>
</g>
<!-- libsipy&#45;&gt;lib_N -->
<g id="edge29" class="edge">
<title>libsipy-&gt;lib_N</title>
<path fill="none" stroke="#000000" stroke-dasharray="5,2" d="M306.3921,-191.0579C322.289,-187.1257 342.0413,-180.3403 356.6819,-169 379.4856,-151.3367 370.0875,-132.9303 392.6819,-115 402.4358,-107.2595 414.3241,-101.3098 426.0094,-96.7937"/>
<polygon fill="#000000" stroke="#000000" points="427.4821,-99.9846 435.726,-93.3297 425.1314,-93.3911 427.4821,-99.9846"/>
</g>
<!-- plugin_M -->
<g id="node15" class="node">
<title>plugin_M</title>
<polygon fill="#add8e6" stroke="#000000" points="528.6797,-14.5442 528.6797,-29.4558 497.4312,-40 453.2392,-40 421.9908,-29.4558 421.9908,-14.5442 453.2392,-4 497.4312,-4 528.6797,-14.5442"/>
<polygon fill="none" stroke="#000000" points="532.6922,-11.6752 532.6922,-32.3248 498.0919,-44 452.5786,-44 417.9783,-32.3248 417.9783,-11.6752 452.5786,0 498.0919,0 532.6922,-11.6752"/>
<text text-anchor="middle" x="475.3352" y="-17.8" font-family="Times,serif" font-size="14.00" fill="#000000">plugin_M</text>
</g>
<!-- SPM&#45;&gt;plugin_M -->
<g id="edge31" class="edge">
<title>SPM-&gt;plugin_M</title>
<path fill="none" stroke="#000000" stroke-dasharray="5,2" d="M343.3694,-123.8951C348.1083,-121.3044 352.6169,-118.3551 356.6819,-115 381.2565,-94.717 368.3475,-73.5706 392.6819,-53 399.3999,-47.3211 407.2604,-42.6303 415.4135,-38.7701"/>
<polygon fill="#000000" stroke="#000000" points="416.9076,-41.9373 424.6975,-34.7563 414.1297,-35.5121 416.9076,-41.9373"/>
</g>
</g>
</svg>