<svg width="921pt" height="704pt" viewBox="0.00 0.00 921.42 704.00" xmlns="http://www.w3.org/2000/svg" xmlns:xlink="http://www.w3.org/1999/xlink">
<g id="graph0" class="graph" transform="scale(1 1) rotate(0) translate(4 700)">
<polygon fill="white" stroke="none" points="-4,4 -4,-700 917.42,-700 917.42,4 -4,4"/>
<!-- SiPy -->
<g id="node1" class="node">
<title>SiPy</title>
<polygon fill="lightgreen" stroke="black" points="165.72,-277.8 0,-277.8 0,-236.2 165.72,-236.2 165.72,-277.8"/>
<text text-anchor="middle" x="82.86" y="-261.2" font-family="Times,serif" font-size="14.00">SiPy 0.6.0</text>
<text text-anchor="middle" x="82.86" y="-244.4" font-family="Times,serif" font-size="14.00">Otoro-Chutoro Continuum</text>
</g>
<!-- fitter -->
<g id="node2" class="node">
<title>fitter</title>
<polygon fill="yellow" stroke="black" points="534.85,-586 505.09,-604 445.59,-604 415.84,-586 445.59,-568 505.09,-568 534.85,-586"/>
<text text-anchor="middle" x="475.34" y="-581.8" font-family="Times,serif" font-size="14.00">fitter 1.7.1</text>
</g>
<!-- SiPy&#45;&gt;fitter -->
<g id="edge1" class="edge">
<title>SiPy-&gt;fitter</title>
<path fill="none" stroke="black" d="M85.19,-278.19C89.9,-333.77 110.87,-484.22 201.72,-554 263.32,-601.31 357,-601.35 416.93,-595.13"/>
<polygon fill="black" stroke="black" points="417.04,-598.64 426.58,-594.03 416.25,-591.69 417.04,-598.64"/>
</g>
<!-- pandas -->
<g id="node5" class="node">
<title>pandas</title>
<polygon fill="yellow" stroke="black" points="740.09,-535 705.69,-553 636.89,-553 602.49,-535 636.89,-517 705.69,-517 740.09,-535"/>
<text text-anchor="middle" x="671.29" y="-530.8" font-family="Times,serif" font-size="14.00">pandas 2.2.3</text>
</g>
<!-- SiPy&#45;&gt;pandas -->
<g id="edge2" class="edge">
<title>SiPy-&gt;pandas</title>
<path fill="none" stroke="black" d="M90.18,-278.08C103.66,-319.39 139.23,-411.24 201.72,-460 319.49,-551.89 505.5,-551.24 604,-543.04"/>
<polygon fill="black" stroke="black" points="604.12,-546.54 613.77,-542.17 603.5,-539.57 604.12,-546.54"/>
</g>
<!-- pingouin -->
<g id="node6" class="node">
<title>pingouin</title>
<polygon fill="yellow" stroke="black" points="356.68,-433 317.94,-451 240.46,-451 201.72,-433 240.46,-415 317.94,-415 356.68,-433"/>
<text text-anchor="middle" x="279.2" y="-428.8" font-family="Times,serif" font-size="14.00">pingouin 0.5.5</text>
</g>
<!-- SiPy&#45;&gt;pingouin -->
<g id="edge3" class="edge">
<title>SiPy-&gt;pingouin</title>
<path fill="none" stroke="black" d="M107.3,-278.23C143.06,-310.61 211.14,-372.27 249.7,-407.19"/>
<polygon fill="black" stroke="black" points="247.03,-409.5 256.8,-413.61 251.73,-404.31 247.03,-409.5"/>
</g>
<!-- scipy -->
<g id="node8" class="node">
<title>scipy</title>
<polygon fill="yellow" stroke="black" points="738.24,-429 704.76,-447 637.82,-447 604.34,-429 637.82,-411 704.76,-411 738.24,-429"/>
<text text-anchor="middle" x="671.29" y="-424.8" font-family="Times,serif" font-size="14.00">scipy 1.15.2</text>
</g>
<!-- SiPy&#45;&gt;scipy -->
<g id="edge4" class="edge">
<title>SiPy-&gt;scipy</title>
<path fill="none" stroke="black" d="M165.84,-265.69C282.41,-278.91 489.51,-305.86 558,-337 592.43,-352.66 625.08,-381.57 646.21,-402.82"/>
<polygon fill="black" stroke="black" points="643.46,-405.01 652.94,-409.75 648.48,-400.14 643.46,-405.01"/>
</g>
<!-- libsipy -->
<g id="node11" class="node">
<title>libsipy</title>
<polygon fill="lightpink" stroke="black" points="306.26,-198 252.14,-198 252.14,-162 306.26,-162 306.26,-198"/>
<text text-anchor="middle" x="279.2" y="-175.8" font-family="Times,serif" font-size="14.00">libsipy</text>
</g>
<!-- SiPy&#45;&gt;libsipy -->
<g id="edge27" class="edge">
<title>SiPy-&gt;libsipy</title>
<path fill="none" stroke="red" d="M132.04,-235.77C153.28,-226.61 178.62,-215.97 201.72,-207 214.51,-202.03 228.65,-196.94 241.25,-192.53"/>
<polygon fill="red" stroke="red" points="242.13,-195.93 250.43,-189.34 239.84,-189.31 242.13,-195.93"/>
</g>
<!-- SPM -->
<g id="node15" class="node">
<title>SPM</title>
<polygon fill="lightblue" stroke="black" points="347.09,-65 211.31,-65 211.31,-29 347.09,-29 347.09,-65"/>
<text text-anchor="middle" x="279.2" y="-42.8" font-family="Times,serif" font-size="14.00">SiPy Plugin Manager</text>
</g>
<!-- SiPy&#45;&gt;SPM -->
<g id="edge31" class="edge">
<title>SiPy-&gt;SPM</title>
<path fill="none" stroke="red" d="M96.43,-235.82C116.14,-203.76 156.73,-142.07 201.72,-99 212.25,-88.93 224.92,-79.46 236.9,-71.44"/>
<polygon fill="red" stroke="red" points="238.55,-74.54 245.03,-66.15 234.73,-68.67 238.55,-74.54"/>
</g>
<!-- script_engine -->
<g id="node17" class="node">
<title>script_engine</title>
<polygon fill="gold" stroke="black" points="335.23,-144 223.17,-144 223.17,-108 335.23,-108 335.23,-144"/>
<text text-anchor="middle" x="279.2" y="-121.8" font-family="Times,serif" font-size="14.00">Scripting System</text>
</g>
<!-- SiPy&#45;&gt;script_engine -->
<g id="edge33" class="edge">
<title>SiPy-&gt;script_engine</title>
<path fill="none" stroke="red" d="M102.84,-235.98C124.7,-212.86 162.66,-175.95 201.72,-153 205.1,-151.01 208.65,-149.14 212.29,-147.38"/>
<polygon fill="red" stroke="red" points="213.66,-150.6 221.36,-143.33 210.8,-144.21 213.66,-150.6"/>
</g>
<!-- cmd -->
<g id="node18" class="node">
<title>cmd</title>
<polygon fill="plum" stroke="black" points="348.64,-252 209.76,-252 209.76,-216 348.64,-216 348.64,-252"/>
<text text-anchor="middle" x="279.2" y="-229.8" font-family="Times,serif" font-size="14.00">Command Line Tools</text>
</g>
<!-- SiPy&#45;&gt;cmd -->
<g id="edge34" class="edge">
<title>SiPy-&gt;cmd</title>
<path fill="none" stroke="red" d="M166,-247.28C176.65,-246.02 187.55,-244.73 198.16,-243.47"/>
<polygon fill="red" stroke="red" points="198.52,-246.95 208.04,-242.3 197.7,-240 198.52,-246.95"/>
</g>
<!-- matplotlib -->
<g id="node3" class="node">
<title>matplotlib</title>
<ellipse fill="seashell" stroke="black" cx="671.29" cy="-630" rx="77.29" ry="18"/>
<text text-anchor="middle" x="671.29" y="-625.8" font-family="Times,serif" font-size="14.00">matplotlib 3.10.1</text>
</g>
<!-- fitter&#45;&gt;matplotlib -->
<g id="edge5" class="edge">
<title>fitter-&gt;matplotlib</title>
<path fill="none" stroke="black" d="M519.39,-595.77C544.21,-601.4 575.96,-608.6 603.92,-614.94"/>
<polygon fill="black" stroke="black" points="602.82,-618.28 613.35,-617.08 604.37,-611.46 602.82,-618.28"/>
</g>
<!-- numpy -->
<g id="node4" class="node">
<title>numpy</title>
<ellipse fill="seashell" stroke="black" cx="849" cy="-509" rx="64.42" ry="18"/>
<text text-anchor="middle" x="849" y="-504.8" font-family="Times,serif" font-size="14.00">numpy 1.26.4</text>
</g>
<!-- fitter&#45;&gt;numpy -->
<g id="edge6" class="edge">
<title>fitter-&gt;numpy</title>
<path fill="none" stroke="black" d="M533.1,-587.53C589.04,-587.53 676.38,-583.46 748.58,-562 771.36,-555.23 794.91,-542.95 813.37,-531.91"/>
<polygon fill="black" stroke="black" points="815.09,-534.96 821.78,-526.74 811.43,-529 815.09,-534.96"/>
</g>
<!-- fitter&#45;&gt;pandas -->
<g id="edge7" class="edge">
<title>fitter-&gt;pandas</title>
<path fill="none" stroke="black" d="M517.47,-575.18C545.4,-567.84 582.7,-558.03 613.46,-549.94"/>
<polygon fill="black" stroke="black" points="614.22,-553.36 623,-547.43 612.44,-546.59 614.22,-553.36"/>
</g>
<!-- fitter&#45;&gt;scipy -->
<g id="edge8" class="edge">
<title>fitter-&gt;scipy</title>
<path fill="none" stroke="black" d="M498.97,-567.68C533.48,-539.75 599.37,-486.41 638.61,-454.64"/>
<polygon fill="black" stroke="black" points="640.76,-457.41 646.33,-448.4 636.36,-451.97 640.76,-457.41"/>
</g>
<!-- matplotlib&#45;&gt;numpy -->
<g id="edge9" class="edge">
<title>matplotlib-&gt;numpy</title>
<path fill="none" stroke="black" d="M714.29,-614.65C725.78,-609.71 737.99,-603.74 748.58,-597 776.54,-579.22 804.44,-553.67 823.54,-534.67"/>
<polygon fill="black" stroke="black" points="825.8,-537.36 830.35,-527.79 820.82,-532.44 825.8,-537.36"/>
</g>
<!-- pandas&#45;&gt;numpy -->
<g id="edge10" class="edge">
<title>pandas-&gt;numpy</title>
<path fill="none" stroke="black" d="M725.96,-527.06C743.02,-524.53 762.1,-521.71 780.03,-519.06"/>
<polygon fill="black" stroke="black" points="780.43,-522.54 789.81,-517.61 779.4,-515.61 780.43,-522.54"/>
</g>
<!-- pingouin&#45;&gt;matplotlib -->
<g id="edge11" class="edge">
<title>pingouin-&gt;matplotlib</title>
<path fill="none" stroke="black" d="M285.43,-451.36C297.32,-489.3 330.3,-575.88 392.68,-613 454.86,-650 539.36,-649.51 598.75,-642.74"/>
<polygon fill="black" stroke="black" points="598.91,-646.25 608.4,-641.55 598.05,-639.3 598.91,-646.25"/>
</g>
<!-- pingouin&#45;&gt;numpy -->
<g id="edge12" class="edge">
<title>pingouin-&gt;numpy</title>
<path fill="none" stroke="black" d="M294.53,-414.52C313.87,-391.25 350.77,-352.45 392.68,-337 541.4,-282.16 613.56,-276.98 748.58,-360 794.12,-388 823.33,-445.58 837.6,-480.39"/>
<polygon fill="black" stroke="black" points="834.24,-481.39 841.16,-489.41 840.75,-478.83 834.24,-481.39"/>
</g>
<!-- pingouin&#45;&gt;pandas -->
<g id="edge13" class="edge">
<title>pingouin-&gt;pandas</title>
<path fill="none" stroke="black" d="M315.85,-451.41C337.57,-461.98 366.16,-474.74 392.68,-483 462.88,-504.85 546.06,-518.94 602.95,-526.87"/>
<polygon fill="black" stroke="black" points="602.44,-530.33 612.82,-528.21 603.39,-523.39 602.44,-530.33"/>
</g>
<!-- seaborn -->
<g id="node7" class="node">
<title>seaborn</title>
<ellipse fill="seashell" stroke="black" cx="475.34" cy="-678" rx="67.62" ry="18"/>
<text text-anchor="middle" x="475.34" y="-673.8" font-family="Times,serif" font-size="14.00">seaborn 0.13.2</text>
</g>
<!-- pingouin&#45;&gt;seaborn -->
<g id="edge14" class="edge">
<title>pingouin-&gt;seaborn</title>
<path fill="none" stroke="black" d="M285.13,-451.42C296.91,-492.11 330.47,-590.41 392.68,-646 399.31,-651.92 407.16,-656.8 415.33,-660.82"/>
<polygon fill="black" stroke="black" points="413.84,-663.98 424.4,-664.83 416.67,-657.58 413.84,-663.98"/>
</g>
<!-- pingouin&#45;&gt;scipy -->
<g id="edge15" class="edge">
<title>pingouin-&gt;scipy</title>
<path fill="none" stroke="black" d="M351.3,-430.09C365.03,-429.63 379.3,-429.24 392.68,-429 460.53,-427.79 537.72,-427.91 593.46,-428.27"/>
<polygon fill="black" stroke="black" points="593.12,-431.77 603.15,-428.33 593.17,-424.77 593.12,-431.77"/>
</g>
<!-- scikit&#45;learn -->
<g id="node9" class="node">
<title>scikit-learn</title>
<ellipse fill="seashell" stroke="black" cx="475.34" cy="-364" rx="76.2" ry="18"/>
<text text-anchor="middle" x="475.34" y="-359.8" font-family="Times,serif" font-size="14.00">scikit-learn 1.6.1</text>
</g>
<!-- pingouin&#45;&gt;scikit&#45;learn -->
<g id="edge16" class="edge">
<title>pingouin-&gt;scikit-learn</title>
<path fill="none" stroke="black" d="M323.77,-417.52C352.67,-407.24 390.78,-393.7 421.42,-382.81"/>
<polygon fill="black" stroke="black" points="422.24,-386.23 430.49,-379.58 419.9,-379.64 422.24,-386.23"/>
</g>
<!-- statsmodels -->
<g id="node10" class="node">
<title>statsmodels</title>
<ellipse fill="seashell" stroke="black" cx="475.34" cy="-456" rx="82.66" ry="18"/>
<text text-anchor="middle" x="475.34" y="-451.8" font-family="Times,serif" font-size="14.00">statsmodels 0.14.4</text>
</g>
<!-- pingouin&#45;&gt;statsmodels -->
<g id="edge17" class="edge">
<title>pingouin-&gt;statsmodels</title>
<path fill="none" stroke="black" d="M341.9,-440.31C357.41,-442.15 374.33,-444.15 390.72,-446.09"/>
<polygon fill="black" stroke="black" points="390.11,-449.55 400.46,-447.25 390.94,-442.59 390.11,-449.55"/>
</g>
<!-- seaborn&#45;&gt;matplotlib -->
<g id="edge18" class="edge">
<title>seaborn-&gt;matplotlib</title>
<path fill="none" stroke="black" d="M526.04,-665.7C550.39,-659.67 580.01,-652.34 606.06,-645.9"/>
<polygon fill="black" stroke="black" points="606.65,-649.36 615.52,-643.56 604.97,-642.56 606.65,-649.36"/>
</g>
<!-- seaborn&#45;&gt;numpy -->
<g id="edge19" class="edge">
<title>seaborn-&gt;numpy</title>
<path fill="none" stroke="black" d="M534.03,-687.39C592.26,-693.86 682.76,-695.4 748.58,-657 794.54,-630.19 823.6,-572.65 837.74,-537.74"/>
<polygon fill="black" stroke="black" points="840.9,-539.27 841.26,-528.68 834.38,-536.74 840.9,-539.27"/>
</g>
<!-- seaborn&#45;&gt;pandas -->
<g id="edge20" class="edge">
<title>seaborn-&gt;pandas</title>
<path fill="none" stroke="black" d="M499.74,-660.75C533.78,-635.65 597.18,-588.91 636.35,-560.02"/>
<polygon fill="black" stroke="black" points="638.09,-563.09 644.06,-554.34 633.94,-557.46 638.09,-563.09"/>
</g>
<!-- scipy&#45;&gt;numpy -->
<g id="edge21" class="edge">
<title>scipy-&gt;numpy</title>
<path fill="none" stroke="black" d="M708.27,-445.38C735.81,-457.92 773.95,-475.29 803.43,-488.71"/>
<polygon fill="black" stroke="black" points="801.93,-491.87 812.48,-492.83 804.83,-485.5 801.93,-491.87"/>
</g>
<!-- scikit&#45;learn&#45;&gt;numpy -->
<g id="edge22" class="edge">
<title>scikit-learn-&gt;numpy</title>
<path fill="none" stroke="black" d="M550.89,-361.2C608.03,-362.08 687.22,-370.02 748.58,-402 783.92,-420.41 813.33,-456.54 830.78,-481.69"/>
<polygon fill="black" stroke="black" points="827.75,-483.46 836.24,-489.81 833.56,-479.56 827.75,-483.46"/>
</g>
<!-- scikit&#45;learn&#45;&gt;scipy -->
<g id="edge23" class="edge">
<title>scikit-learn-&gt;scipy</title>
<path fill="none" stroke="black" d="M520.35,-378.75C549.42,-388.49 587.64,-401.3 618.22,-411.55"/>
<polygon fill="black" stroke="black" points="617.08,-414.86 627.67,-414.72 619.3,-408.22 617.08,-414.86"/>
</g>
<!-- statsmodels&#45;&gt;numpy -->
<g id="edge24" class="edge">
<title>statsmodels-&gt;numpy</title>
<path fill="none" stroke="black" d="M545.38,-465.84C612.25,-475.38 713.07,-489.76 779.69,-499.26"/>
<polygon fill="black" stroke="black" points="779.01,-502.7 789.4,-500.64 780,-495.77 779.01,-502.7"/>
</g>
<!-- statsmodels&#45;&gt;pandas -->
<g id="edge25" class="edge">
<title>statsmodels-&gt;pandas</title>
<path fill="none" stroke="black" d="M517.54,-471.93C530.51,-477.01 544.88,-482.68 558,-488 578.99,-496.5 602.08,-506.12 621.84,-514.43"/>
<polygon fill="black" stroke="black" points="620.47,-517.66 631.04,-518.31 623.19,-511.2 620.47,-517.66"/>
</g>
<!-- statsmodels&#45;&gt;scipy -->
<g id="edge26" class="edge">
<title>statsmodels-&gt;scipy</title>
<path fill="none" stroke="black" d="M546.09,-446.29C565.61,-443.57 586.72,-440.63 605.92,-437.96"/>
<polygon fill="black" stroke="black" points="606.35,-441.43 615.77,-436.59 605.39,-434.5 606.35,-441.43"/>
</g>
<!-- base -->
<g id="node12" class="node">
<title>base</title>
<ellipse fill="lightpink" stroke="black" cx="475.34" cy="-196" rx="28.2" ry="18"/>
<text text-anchor="middle" x="475.34" y="-191.8" font-family="Times,serif" font-size="14.00">base</text>
</g>
<!-- libsipy&#45;&gt;base -->
<g id="edge28" class="edge">
<title>libsipy-&gt;base</title>
<path fill="none" stroke="black" d="M306.39,-182.16C339.68,-184.9 397.45,-189.66 435.79,-192.82"/>
<polygon fill="black" stroke="black" points="435.25,-196.29 445.51,-193.62 435.83,-189.31 435.25,-196.29"/>
</g>
<!-- r_wrap -->
<g id="node13" class="node">
<title>r_wrap</title>
<ellipse fill="lightpink" stroke="black" cx="475.34" cy="-80" rx="38.39" ry="18"/>
<text text-anchor="middle" x="475.34" y="-75.8" font-family="Times,serif" font-size="14.00">r_wrap</text>
</g>
<!-- libsipy&#45;&gt;r_wrap -->
<g id="edge29" class="edge">
<title>libsipy-&gt;r_wrap</title>
<path fill="none" stroke="black" d="M306.74,-174.58C322.33,-170.48 341.82,-163.68 356.68,-153 377.77,-137.85 371.45,-121.94 392.68,-107 403.25,-99.57 416,-94.07 428.25,-90.06"/>
<polygon fill="black" stroke="black" points="429.25,-93.41 437.84,-87.21 427.25,-86.71 429.25,-93.41"/>
</g>
<!-- lib_N -->
<g id="node14" class="node">
<title>lib_N</title>
<polygon fill="lightpink" stroke="black" points="511.1,-130.54 511.1,-145.46 490.15,-156 460.53,-156 439.59,-145.46 439.59,-130.54 460.53,-120 490.15,-120 511.1,-130.54"/>
<polygon fill="none" stroke="black" points="515.1,-128.08 515.1,-147.92 491.1,-160 459.58,-160 435.59,-147.92 435.59,-128.08 459.58,-116 491.1,-116 515.1,-128.08"/>
<text text-anchor="middle" x="475.34" y="-133.8" font-family="Times,serif" font-size="14.00">lib_N</text>
</g>
<!-- libsipy&#45;&gt;lib_N -->
<g id="edge30" class="edge">
<title>libsipy-&gt;lib_N</title>
<path fill="none" stroke="black" stroke-dasharray="5,2" d="M306.39,-174.34C336.4,-167.84 386.3,-157.05 423.92,-148.91"/>
<polygon fill="black" stroke="black" points="424.66,-152.33 433.69,-146.79 423.18,-145.49 424.66,-152.33"/>
</g>
<!-- R -->
<g id="node19" class="node">
<title>R</title>
<polygon fill="plum" stroke="black" points="699.71,-179 642.87,-179 642.87,-143 699.71,-143 699.71,-179"/>
<text text-anchor="middle" x="671.29" y="-156.8" font-family="Times,serif" font-size="14.00">R 4.4.1</text>
</g>
<!-- r_wrap&#45;&gt;R -->
<g id="edge35" class="edge">
<title>r_wrap-&gt;R</title>
<path fill="none" stroke="black" d="M508.49,-89.57C523.67,-94.36 541.94,-100.51 558,-107 583.34,-117.23 611.01,-130.52 632.55,-141.35"/>
<polygon fill="black" stroke="black" points="630.74,-144.35 641.24,-145.76 633.91,-138.11 630.74,-144.35"/>
</g>
<!-- plugin_M -->
<g id="node16" class="node">
<title>plugin_M</title>
<polygon fill="lightblue" stroke="black" points="528.52,-14.54 528.52,-29.46 497.37,-40 453.31,-40 422.16,-29.46 422.16,-14.54 453.31,-4 497.37,-4 528.52,-14.54"/>
<polygon fill="none" stroke="black" points="532.52,-11.68 532.52,-32.32 498.03,-44 452.66,-44 418.16,-32.32 418.16,-11.68 452.66,0 498.03,0 532.52,-11.68"/>
<text text-anchor="middle" x="475.34" y="-17.8" font-family="Times,serif" font-size="14.00">plugin_M</text>
</g>
<!-- SPM&#45;&gt;plugin_M -->
<g id="edge32" class="edge">
<title>SPM-&gt;plugin_M</title>
<path fill="none" stroke="black" stroke-dasharray="5,2" d="M347.56,-38.33C366.6,-35.87 387.34,-33.2 406.41,-30.75"/>
<polygon fill="black" stroke="black" points="406.77,-34.23 416.24,-29.48 405.87,-27.29 406.77,-34.23"/>
</g>
<!-- cmd&#45;&gt;R -->
<g id="edge36" class="edge">
<title>cmd-&gt;R</title>
<path fill="none" stroke="black" stroke-dasharray="5,2" d="M348.92,-239.97C405.99,-242.88 488.73,-242.32 558,-223 585.78,-215.25 614.18,-199.48 635.48,-185.78"/>
<polygon fill="black" stroke="black" points="637.35,-188.74 643.76,-180.3 633.49,-182.9 637.35,-188.74"/>
</g>
</g>
</svg>